<svg xmlns="http://www.w3.org/2000/svg" version="1.1" xmlns:xlink="http://www.w3.org/1999/xlink" xmlns:svgjs="http://svgjs.dev/svgjs" width="2000" height="454" viewBox="0 0 2000 454"><g transform="matrix(1,0,0,1,-1.2121212121212466,0.3177837799213705)"><svg viewBox="0 0 396 90" data-background-color="#dfdad6" preserveAspectRatio="xMidYMid meet" height="454" width="2000" xmlns="http://www.w3.org/2000/svg" xmlns:xlink="http://www.w3.org/1999/xlink"><g id="tight-bounds" transform="matrix(1,0,0,1,0.2400000000000091,-0.06299678456591096)"><svg viewBox="0 0 395.52 90.12599356913184" height="90.12599356913184" width="395.52"><g><svg viewBox="0 0 395.52 90.12599356913184" height="90.12599356913184" width="395.52"><g><svg viewBox="0 0 395.52 90.12599356913184" height="90.12599356913184" width="395.52"><g id="textblocktransform"><svg viewBox="0 0 395.52 90.12599356913184" height="90.12599356913184" width="395.52" id="textblock"><g><svg viewBox="0 0 395.52 90.12599356913184" height="90.12599356913184" width="395.52"><g transform="matrix(1,0,0,1,0,0)"><svg width="395.52" viewBox="2.5 -38.55 233.22 53.15" height="90.12599356913184" data-palette-color="url(#38551644-b347-425d-a8d2-a2b482701c8b)"><g class="wordmark-text-0" data-fill-palette-color="primary" id="text-0"></g></svg></g></svg></g></svg></g></svg></g></svg></g><defs></defs><mask id="65313e7c-3cff-4a9b-8e78-023b624192be"><g id="SvgjsG1145"><svg viewBox="0 0 395.52 90.12599356913184" height="90.12599356913184" width="395.52"><g><svg viewBox="0 0 395.52 90.12599356913184" height="90.12599356913184" width="395.52"><g><svg viewBox="0 0 395.52 90.12599356913184" height="90.12599356913184" width="395.52"><g id="SvgjsG1144"><svg viewBox="0 0 395.52 90.12599356913184" height="90.12599356913184" width="395.52" id="SvgjsSvg1143"><g><svg viewBox="0 0 395.52 90.12599356913184" height="90.12599356913184" width="395.52"><g transform="matrix(1,0,0,1,0,0)"><svg width="395.52" viewBox="2.5 -38.55 233.22 53.15" height="90.12599356913184" data-palette-color="url(#38551644-b347-425d-a8d2-a2b482701c8b)"><g class="wordmark-text-0" data-fill-palette-color="primary" id="SvgjsG1142"><path d="M26.9-38.55L27.85-38.55 27.85-30.55 26.9-30.55Q26.9-30.9 26.75-31.25 26.6-31.6 26.35-31.6L26.35-31.6 10.15-31.6 10.15-22.75 23.25-22.75Q23.5-22.75 23.65-23.1 23.8-23.45 23.8-23.8L23.8-23.8 24.75-23.8 24.75-15.8 23.8-15.8Q23.8-16.15 23.65-16.5 23.5-16.85 23.25-16.85L23.25-16.85 10.15-16.85 10.15-1.5Q10.15-1.25 10.53-1.1 10.9-0.95 11.3-0.95L11.3-0.95 11.3 0 2.5 0 2.5-0.95Q2.9-0.95 3.28-1.1 3.65-1.25 3.65-1.5L3.65-1.5 3.65-36Q3.65-36.25 3.28-36.4 2.9-36.55 2.55-36.55L2.55-36.55 2.55-37.5 26.35-37.5Q26.6-37.5 26.75-37.85 26.9-38.2 26.9-38.55L26.9-38.55ZM36.2-27.2Q34.6-27.2 33.47-28.3 32.35-29.4 32.35-31.05L32.35-31.05Q32.35-32.6 33.47-33.73 34.6-34.85 36.2-34.85L36.2-34.85Q37.8-34.85 38.9-33.73 40-32.6 40-31.05L40-31.05Q40-29.4 38.9-28.3 37.8-27.2 36.2-27.2L36.2-27.2ZM32.95-21.5Q32.95-21.75 32.57-21.9 32.2-22.05 31.85-22.05L31.85-22.05 31.85-23 40.45-23 40.45-22.05Q40.1-22.05 39.72-21.9 39.35-21.75 39.35-21.5L39.35-21.5 39.35-1.5Q39.35-1.25 39.72-1.1 40.1-0.95 40.45-0.95L40.45-0.95 40.45 0 31.85 0 31.85-0.95Q32.2-0.95 32.57-1.1 32.95-1.25 32.95-1.5L32.95-1.5 32.95-21.5ZM46.9-36Q46.9-36.25 46.52-36.4 46.15-36.55 45.75-36.55L45.75-36.55 45.75-37.5 54.55-37.5 54.55-36.55Q54.15-36.55 53.77-36.4 53.4-36.25 53.4-36L53.4-36 53.4-1.5Q53.4-1.25 53.77-1.1 54.15-0.95 54.55-0.95L54.55-0.95 54.55 0 45.75 0 45.75-0.95Q46.15-0.95 46.52-1.1 46.9-1.25 46.9-1.5L46.9-1.5 46.9-36ZM96.29-13.45L96.29-1.5Q96.29-1.25 96.67-1.1 97.04-0.95 97.44-0.95L97.44-0.95 97.44 0 88.64 0 88.64-0.95Q89.04-0.95 89.42-1.1 89.79-1.25 89.79-1.5L89.79-1.5 89.79-11.9Q89.79-18.1 85.69-18.1L85.69-18.1Q83.69-18.1 82.59-16.45 81.49-14.8 81.49-11.5L81.49-11.5 81.49-1.5Q81.49-1.25 81.87-1.1 82.24-0.95 82.64-0.95L82.64-0.95 82.64 0 73.89 0 73.89-0.95Q74.29-0.95 74.67-1.1 75.04-1.25 75.04-1.5L75.04-1.5 75.04-11.9Q75.04-14.65 74.19-16.38 73.34-18.1 71.04-18.1L71.04-18.1Q69.24-18.1 68.17-16.78 67.09-15.45 66.89-12.8L66.89-12.8 66.89-1.5Q66.89-1.25 67.29-1.1 67.69-0.95 68.04-0.95L68.04-0.95 68.04 0 59.14 0 59.14-0.95Q59.49-0.95 59.89-1.1 60.29-1.25 60.29-1.5L60.29-1.5 60.29-21.5Q60.29-21.75 59.92-21.9 59.54-22.05 59.19-22.05L59.19-22.05 59.19-23 66.89-23 66.89-21.65Q68.89-23.5 71.99-23.5L71.99-23.5Q74.79-23.5 76.82-22.43 78.84-21.35 79.99-19.45L79.99-19.45Q80.89-21.3 82.77-22.4 84.64-23.5 86.99-23.5L86.99-23.5Q91.69-23.5 93.99-20.7 96.29-17.9 96.29-13.45L96.29-13.45ZM107.09-27.2Q105.49-27.2 104.37-28.3 103.24-29.4 103.24-31.05L103.24-31.05Q103.24-32.6 104.37-33.73 105.49-34.85 107.09-34.85L107.09-34.85Q108.69-34.85 109.79-33.73 110.89-32.6 110.89-31.05L110.89-31.05Q110.89-29.4 109.79-28.3 108.69-27.2 107.09-27.2L107.09-27.2ZM103.84-21.5Q103.84-21.75 103.47-21.9 103.09-22.05 102.74-22.05L102.74-22.05 102.74-23 111.34-23 111.34-22.05Q110.99-22.05 110.62-21.9 110.24-21.75 110.24-21.5L110.24-21.5 110.24-1.5Q110.24-1.25 110.62-1.1 110.99-0.95 111.34-0.95L111.34-0.95 111.34 0 102.74 0 102.74-0.95Q103.09-0.95 103.47-1.1 103.84-1.25 103.84-1.5L103.84-1.5 103.84-21.5ZM129.09-24L130.04-24 130.04-16.4 129.09-16.4Q129.09-16.75 128.94-17.07 128.79-17.4 128.54-17.4L128.54-17.4 125.29-17.4 125.29-1.5Q125.29-1.25 125.64-1.1 125.99-0.95 126.34-0.95L126.34-0.95 126.34 0 118.19 0 118.19-0.95Q118.54-0.95 118.89-1.1 119.24-1.25 119.24-1.5L119.24-1.5 119.24-17.4 116.84-17.4Q116.59-17.4 116.44-17.07 116.29-16.75 116.29-16.4L116.29-16.4 115.34-16.4 115.34-24 116.29-24Q116.29-23.65 116.44-23.33 116.59-23 116.84-23L116.84-23 119.24-23 119.24-28.85Q119.24-29.1 118.89-29.25 118.54-29.4 118.19-29.4L118.19-29.4 118.19-30.35 126.34-30.35 126.34-29.4Q125.99-29.4 125.64-29.25 125.29-29.1 125.29-28.85L125.29-28.85 125.29-23 128.54-23Q128.79-23 128.94-23.33 129.09-23.65 129.09-24L129.09-24ZM138.38-27.2Q136.78-27.2 135.66-28.3 134.53-29.4 134.53-31.05L134.53-31.05Q134.53-32.6 135.66-33.73 136.78-34.85 138.38-34.85L138.38-34.85Q139.98-34.85 141.09-33.73 142.19-32.6 142.19-31.05L142.19-31.05Q142.19-29.4 141.09-28.3 139.98-27.2 138.38-27.2L138.38-27.2ZM135.13-21.5Q135.13-21.75 134.76-21.9 134.38-22.05 134.03-22.05L134.03-22.05 134.03-23 142.63-23 142.63-22.05Q142.28-22.05 141.91-21.9 141.53-21.75 141.53-21.5L141.53-21.5 141.53-1.5Q141.53-1.25 141.91-1.1 142.28-0.95 142.63-0.95L142.63-0.95 142.63 0 134.03 0 134.03-0.95Q134.38-0.95 134.76-1.1 135.13-1.25 135.13-1.5L135.13-1.5 135.13-21.5ZM174.33-23L174.33-22.05Q173.33-22.05 173.08-21.65L173.08-21.65 164.03-2.25Q163.88-1.9 163.88-1.65L163.88-1.65Q163.88-1.25 164.21-1.1 164.53-0.95 164.88-0.95L164.88-0.95 164.88 0 154.78 0 154.78-0.95Q155.13-0.95 155.48-1.13 155.83-1.3 155.83-1.75L155.83-1.75Q155.83-2 155.68-2.3L155.68-2.3 147.33-21.6Q147.18-22.05 146.13-22.05L146.13-22.05 146.13-23 154.83-23 154.83-22.05Q154.23-22.05 154.06-21.78 153.88-21.5 154.03-21.15L154.03-21.15 160.18-6.8 166.68-21.2Q166.73-21.25 166.73-21.35L166.73-21.35Q166.73-21.6 166.36-21.83 165.98-22.05 165.43-22.05L165.43-22.05 165.43-23 174.33-23ZM182.18-27.2Q180.58-27.2 179.45-28.3 178.33-29.4 178.33-31.05L178.33-31.05Q178.33-32.6 179.45-33.73 180.58-34.85 182.18-34.85L182.18-34.85Q183.78-34.85 184.88-33.73 185.98-32.6 185.98-31.05L185.98-31.05Q185.98-29.4 184.88-28.3 183.78-27.2 182.18-27.2L182.18-27.2ZM178.93-21.5Q178.93-21.75 178.55-21.9 178.18-22.05 177.83-22.05L177.83-22.05 177.83-23 186.43-23 186.43-22.05Q186.08-22.05 185.7-21.9 185.33-21.75 185.33-21.5L185.33-21.5 185.33-1.5Q185.33-1.25 185.7-1.1 186.08-0.95 186.43-0.95L186.43-0.95 186.43 0 177.83 0 177.83-0.95Q178.18-0.95 178.55-1.1 178.93-1.25 178.93-1.5L178.93-1.5 178.93-21.5ZM204.18-24L205.13-24 205.13-16.4 204.18-16.4Q204.18-16.75 204.03-17.07 203.88-17.4 203.63-17.4L203.63-17.4 200.38-17.4 200.38-1.5Q200.38-1.25 200.73-1.1 201.08-0.95 201.43-0.95L201.43-0.95 201.43 0 193.28 0 193.28-0.95Q193.63-0.95 193.98-1.1 194.33-1.25 194.33-1.5L194.33-1.5 194.33-17.4 191.93-17.4Q191.68-17.4 191.53-17.07 191.38-16.75 191.38-16.4L191.38-16.4 190.43-16.4 190.43-24 191.38-24Q191.38-23.65 191.53-23.33 191.68-23 191.93-23L191.93-23 194.33-23 194.33-28.85Q194.33-29.1 193.98-29.25 193.63-29.4 193.28-29.4L193.28-29.4 193.28-30.35 201.43-30.35 201.43-29.4Q201.08-29.4 200.73-29.25 200.38-29.1 200.38-28.85L200.38-28.85 200.38-23 203.63-23Q203.88-23 204.03-23.33 204.18-23.65 204.18-24L204.18-24ZM235.72-23L235.72-22.05Q234.67-22.05 234.42-21.65L234.42-21.65 216.92 12.8Q216.87 12.85 216.87 12.95L216.87 12.95Q216.87 13.25 217.22 13.45 217.57 13.65 218.12 13.65L218.12 13.65 218.12 14.6 208.72 14.6 208.72 13.65Q209.77 13.65 210.02 13.25L210.02 13.25 218.17-2.8 207.92-21.7Q207.72-22.05 206.62-22.05L206.62-22.05 206.62-23 215.87-23 215.87-22.05Q215.27-22.05 215.15-21.8 215.02-21.55 215.22-21.25L215.22-21.25 221.57-9.5 227.52-21.2Q227.57-21.25 227.57-21.35L227.57-21.35Q227.57-21.65 227.22-21.85 226.87-22.05 226.32-22.05L226.32-22.05 226.32-23 235.72-23Z" fill="white"></path></g></svg></g></svg></g></svg></g></svg></g></svg></g><defs><mask></mask></defs></svg><rect width="395.52" height="90.12599356913184" fill="black" stroke="none" visibility="hidden"></rect></g></mask><linearGradient x1="0" x2="1" y1="0.5" y2="0.5" id="38551644-b347-425d-a8d2-a2b482701c8b"><stop stop-color="#ffa62e" offset="0"></stop><stop stop-color="#f71b3d" offset="1"></stop></linearGradient><rect width="395.52" height="90.12599356913184" fill="url(#38551644-b347-425d-a8d2-a2b482701c8b)" mask="url(#65313e7c-3cff-4a9b-8e78-023b624192be)" data-fill-palette-color="primary"></rect></svg><rect width="395.52" height="90.12599356913184" fill="none" stroke="none" visibility="hidden"></rect></g></svg></g></svg>